<?xml version="1.0" standalone="no"?>
<svg xmlns:xlink="http://www.w3.org/1999/xlink" xmlns="http://www.w3.org/2000/svg" width="1278" height="1140"><defs><marker id="modelerCanvasArrow" viewBox="0 -5 10 10" refX="5" refY="0" markerWidth="4" markerHeight="4" orient="auto"><path d="M0,-5L10,0L0,5" class="arrowHead"/></marker></defs><g transform="translate(236,-118) scale(1)"><g class="grid"/><g id="relationshiptype_Rel81" class="relationshipType"><path class="relationshipLine arrow" d="M860,525C860,559.333,860,593.667,860,628C860,662.333,860,696.667,860,731" style="fill: none; stroke: lightgray; stroke-width: 1;" marker-end="url(#modelerCanvasArrow)"/><title class="relationshipTypeTooltip">LINE_ITEM</title><text class="displayText" x="860" y="630" text-anchor="middle" baseline-shift="30%" alignment-baseline="alphabetic" font-family="Roboto, sans-serif" font-size="14" style="fill: black;" transform="rotate(90 860 630)">LINE_ITEM</text></g><g id="relationshiptype_Rel82" class="relationshipType"><path class="relationshipLine arrow" d="M826.716,503.284C815.292,517.364,803.867,531.444,793.159,525.751C782.451,520.059,772.459,494.595,775.385,482.841C778.311,471.087,794.156,473.044,810,475" style="fill: none; stroke: lightgray; stroke-width: 1;" marker-end="url(#modelerCanvasArrow)"/><title class="relationshipTypeTooltip">NEXT</title><text class="displayText" x="776.8811565385123" y="507.357884438649" text-anchor="middle" baseline-shift="30%" alignment-baseline="alphabetic" font-family="Roboto, sans-serif" font-size="14" style="fill: black;" transform="rotate(-112.49999999999977 776.8811565385123 507.357884438649)">NEXT</text></g><g id="relationshiptype_Rel70" class="relationshipType"><path class="relationshipLine arrow" d="M421.13,457.326C394.662,441.886,368.195,426.447,341.728,411.008C315.26,395.568,288.793,380.129,262.325,364.69" style="fill: none; stroke: lightgray; stroke-width: 1;" marker-end="url(#modelerCanvasArrow)"/><title class="relationshipTypeTooltip">ASSOC_ID</title><text class="displayText" x="340" y="410" text-anchor="middle" baseline-shift="30%" alignment-baseline="alphabetic" font-family="Roboto, sans-serif" font-size="14" style="fill: black;" transform="rotate(30.256437163529284 340 410)">ASSOC_ID</text></g><g id="relationshiptype_Rel76" class="relationshipType"><path class="relationshipLine arrow" d="M505,492.5C556,517.5,607,542.5,658,542.5C709,542.5,760,517.5,811,492.5" style="fill: none; stroke: lightgray; stroke-width: 1;" marker-end="url(#modelerCanvasArrow)"/><title class="relationshipTypeTooltip">LAST_ORDER</title><text class="displayText" x="660" y="542.5" text-anchor="middle" baseline-shift="30%" alignment-baseline="alphabetic" font-family="Roboto, sans-serif" font-size="14" style="fill: black;" transform="rotate(0 660 542.5)">LAST_ORDER</text></g><g id="relationshiptype_Rel73" class="relationshipType"><path class="relationshipLine arrow" d="M481.176,519.706C500.471,555.882,519.765,592.059,539.059,628.235C558.353,664.412,577.647,700.588,596.941,736.765" style="fill: none; stroke: lightgray; stroke-width: 1;" marker-end="url(#modelerCanvasArrow)"/><title class="relationshipTypeTooltip">PURCHASED</title><text class="displayText" x="540" y="630" text-anchor="middle" baseline-shift="30%" alignment-baseline="alphabetic" font-family="Roboto, sans-serif" font-size="14" style="fill: black;" transform="rotate(61.92751306414704 540 630)">PURCHASED</text></g><g id="relationshiptype_Rel48" class="relationshipType"><path class="relationshipLine arrow" d="M460,435C460,417.333,460,399.667,460,382C460,364.333,460,346.667,460,329" style="fill: none; stroke: lightgray; stroke-width: 1;" marker-end="url(#modelerCanvasArrow)"/><title class="relationshipTypeTooltip">ASSOC_PHONE</title><text class="displayText" x="460" y="380" text-anchor="middle" baseline-shift="30%" alignment-baseline="alphabetic" font-family="Roboto, sans-serif" font-size="14" style="fill: black;" transform="rotate(-90 460 380)">ASSOC_PHONE</text></g><g id="relationshiptype_Rel45" class="relationshipType"><path class="relationshipLine arrow" d="M440.97,520.778C424.262,556.581,407.554,592.385,390.846,628.188C374.138,663.991,357.43,699.794,340.721,735.597" style="fill: none; stroke: lightgray; stroke-width: 1;" marker-end="url(#modelerCanvasArrow)"/><title class="relationshipTypeTooltip">LOCATION</title><text class="displayText" x="390" y="630" text-anchor="middle" baseline-shift="30%" alignment-baseline="alphabetic" font-family="Roboto, sans-serif" font-size="14" style="fill: black;" transform="rotate(-64.98310652189996 390 630)">LOCATION</text></g><g id="relationshiptype_Rel46" class="relationshipType"><path class="relationshipLine arrow" d="M505,486.25C556,498.75,607,511.25,658,511.25C709,511.25,760,498.75,811,486.25" style="fill: none; stroke: lightgray; stroke-width: 1;" marker-end="url(#modelerCanvasArrow)"/><title class="relationshipTypeTooltip">FIRST_ORDER</title><text class="displayText" x="660" y="511.25" text-anchor="middle" baseline-shift="30%" alignment-baseline="alphabetic" font-family="Roboto, sans-serif" font-size="14" style="fill: black;" transform="rotate(0 660 511.25)">FIRST_ORDER</text></g><g id="relationshiptype_Rel51" class="relationshipType"><path class="relationshipLine arrow" d="M426.716,503.284C404.108,530.375,381.501,557.466,362.239,551.127C342.977,544.789,327.06,505.021,335.578,486.762C344.096,468.503,377.048,471.751,410,475" style="fill: none; stroke: lightgray; stroke-width: 1;" marker-end="url(#modelerCanvasArrow)"/><title class="relationshipTypeTooltip">SHARED_PII</title><text class="displayText" x="334.1262166777234" y="525.0675603874339" text-anchor="middle" baseline-shift="30%" alignment-baseline="alphabetic" font-family="Roboto, sans-serif" font-size="14" style="fill: black;" transform="rotate(-112.50000000000003 334.1262166777234 525.0675603874339)">SHARED_PII</text></g><g id="relationshiptype_Rel137" class="relationshipType"><path class="relationshipLine arrow" d="M815,780C790.667,780,766.333,780,742,780C717.667,780,693.333,780,669,780" style="fill: none; stroke: lightgray; stroke-width: 1;" marker-end="url(#modelerCanvasArrow)"/><title class="relationshipTypeTooltip">PRODUCT</title><text class="displayText" x="740" y="780" text-anchor="middle" baseline-shift="30%" alignment-baseline="alphabetic" font-family="Roboto, sans-serif" font-size="14" style="fill: black;" transform="rotate(0 740 780)">PRODUCT</text></g><g id="relationshiptype_Rel74" class="relationshipType"><path class="relationshipLine arrow" d="M505,473.75C556,461.25,607,448.75,658,448.75C709,448.75,760,461.25,811,473.75" style="fill: none; stroke: lightgray; stroke-width: 1;" marker-end="url(#modelerCanvasArrow)"/><title class="relationshipTypeTooltip">ORDERED</title><text class="displayText" x="660" y="448.75" text-anchor="middle" baseline-shift="30%" alignment-baseline="alphabetic" font-family="Roboto, sans-serif" font-size="14" style="fill: black;" transform="rotate(0 660 448.75)">ORDERED</text></g><g id="relationshiptype_Rel78" class="relationshipType"><path class="relationshipLine arrow" d="M415.078,477.358C374.051,474.944,333.024,472.531,291.997,470.117C250.97,467.704,209.942,465.291,168.915,462.877" style="fill: none; stroke: lightgray; stroke-width: 1;" marker-end="url(#modelerCanvasArrow)"/><title class="relationshipTypeTooltip">ASSOC_EMAIL</title><text class="displayText" x="290" y="470" text-anchor="middle" baseline-shift="30%" alignment-baseline="alphabetic" font-family="Roboto, sans-serif" font-size="14" style="fill: black;" transform="rotate(3.3664606634298195 290 470)">ASSOC_EMAIL</text></g><g id="relationshiptype_Rel41" class="relationshipType"><path class="relationshipLine arrow" d="M426.716,503.284C415.292,517.364,403.867,531.444,393.159,525.751C382.451,520.059,372.459,494.595,375.385,482.841C378.311,471.087,394.156,473.044,410,475" style="fill: none; stroke: lightgray; stroke-width: 1;" marker-end="url(#modelerCanvasArrow)"/><title class="relationshipTypeTooltip">SIMILAR_PURCHASE_TO</title><text class="displayText" x="376.88115653851236" y="507.357884438649" text-anchor="middle" baseline-shift="30%" alignment-baseline="alphabetic" font-family="Roboto, sans-serif" font-size="14" style="fill: black;" transform="rotate(-112.50000000000003 376.88115653851236 507.357884438649)">SIMILAR_PUR...</text></g><g id="nodelabel_Node0" class="nodeLabel"><circle class="hoverCircle" cy="480" cx="460" r="60" style="opacity: 0; fill: lightgray;"/><circle class="displayCircle" cy="480" cx="460" r="40" style="fill: rgb(3, 169, 244); stroke: rgb(0, 96, 163); stroke-width: 4;"/><text class="displayText" x="460" y="480" pointer-events="none" text-anchor="middle" alignment-baseline="central" font-family="Roboto, sans-serif" font-size="14" style="fill: white;"><tspan x="460" y="480" dy="0.34em">Customer</tspan></text></g><g id="nodelabel_Node9" class="nodeLabel"><circle class="hoverCircle" cy="780" cx="620" r="60" style="opacity: 0; fill: lightgray;"/><circle class="displayCircle" cy="780" cx="620" r="40" style="fill: rgb(76, 175, 80); stroke: rgb(0, 99, 3); stroke-width: 4;"/><text class="displayText" x="620" y="780" pointer-events="none" text-anchor="middle" alignment-baseline="central" font-family="Roboto, sans-serif" font-size="14" style="fill: white;"><tspan x="620" y="780" dy="0.34em">Product</tspan></text></g><g id="nodelabel_Node7" class="nodeLabel"><circle class="hoverCircle" cy="280" cx="460" r="60" style="opacity: 0; fill: lightgray;"/><circle class="displayCircle" cy="280" cx="460" r="40" style="fill: rgb(0, 188, 212); stroke: rgb(0, 112, 134); stroke-width: 4;"/><text class="displayText" x="460" y="280" pointer-events="none" text-anchor="middle" alignment-baseline="central" font-family="Roboto, sans-serif" font-size="14" style="fill: white;"><tspan x="460" y="280" dy="0.34em">Phone</tspan></text></g><g id="nodelabel_Node11" class="nodeLabel"><circle class="hoverCircle" cy="480" cx="860" r="60" style="opacity: 0; fill: lightgray;"/><circle class="displayCircle" cy="480" cx="860" r="40" style="fill: rgb(255, 193, 7); stroke: rgb(166, 118, 0); stroke-width: 4;"/><text class="displayText" x="860" y="480" pointer-events="none" text-anchor="middle" alignment-baseline="central" font-family="Roboto, sans-serif" font-size="14" style="fill: black;"><tspan x="860" y="480" dy="0.34em">Order</tspan></text></g><g id="nodelabel_Node35" class="nodeLabel"><circle class="hoverCircle" cy="340" cx="220" r="60" style="opacity: 0; fill: lightgray;"/><circle class="displayCircle" cy="340" cx="220" r="40" style="fill: rgb(0, 188, 212); stroke: rgb(0, 112, 134); stroke-width: 4;"/><text class="displayText" x="220" y="340" pointer-events="none" text-anchor="middle" alignment-baseline="central" font-family="Roboto, sans-serif" font-size="14" style="fill: white;"><tspan x="220" y="340" dy="0.34em">Identifier</tspan></text></g><g id="nodelabel_Node33" class="nodeLabel"><circle class="hoverCircle" cy="460" cx="120" r="60" style="opacity: 0; fill: lightgray;"/><circle class="displayCircle" cy="460" cx="120" r="40" style="fill: rgb(0, 188, 212); stroke: rgb(0, 112, 134); stroke-width: 4;"/><text class="displayText" x="120" y="460" pointer-events="none" text-anchor="middle" alignment-baseline="central" font-family="Roboto, sans-serif" font-size="14" style="fill: white;"><tspan x="120" y="460" dy="0.00em">Email</tspan><tspan x="120" y="460" dy="1.10em">Address</tspan></text></g><g id="nodelabel_Node14" class="nodeLabel"><circle class="hoverCircle" cy="780" cx="320" r="60" style="opacity: 0; fill: lightgray;"/><circle class="displayCircle" cy="780" cx="320" r="40" style="fill: rgb(156, 39, 176); stroke: rgb(76, 0, 100); stroke-width: 4;"/><text class="displayText" x="320" y="780" pointer-events="none" text-anchor="middle" alignment-baseline="central" font-family="Roboto, sans-serif" font-size="14" style="fill: white;"><tspan x="320" y="780" dy="0.34em">Country</tspan></text></g><g id="nodelabel_Node37" class="nodeLabel"><circle class="hoverCircle" cy="780" cx="860" r="60" style="opacity: 0; fill: lightgray;"/><circle class="displayCircle" cy="780" cx="860" r="40" style="fill: rgb(255, 193, 7); stroke: rgb(166, 118, 0); stroke-width: 4;"/><text class="displayText" x="860" y="780" pointer-events="none" text-anchor="middle" alignment-baseline="central" font-family="Roboto, sans-serif" font-size="14" style="fill: black;"><tspan x="860" y="780" dy="0.00em">OrderLine</tspan><tspan x="860" y="780" dy="1.10em">Item</tspan></text></g></g><text pointer-events="none" font-family="Roboto, sans-serif" font-size="14"><tspan id="modelerCanvas_textDimensionHelper"/></text></svg>